<svg xmlns="http://www.w3.org/2000/svg" width="16" height="11" fill="none"><path fill="#fff" d="M5.938 11a14 14 0 0 1-1.988-.141c-1.183-.167-2.38-.721-2.72-.887l-.888-.436.962-.283c1.052-.31 1.692-.502 2.484-.803-.793-.344-1.405-.963-1.699-1.764l-.224-.609.184.026a3 3 0 0 1-.418-.462c-.38-.516-.58-1.146-.537-1.686l.042-.531.355.123a2.8 2.8 0 0 1-.321-.808c-.156-.692-.026-1.427.365-2.07l.31-.509.413.445C3.566 2.014 5.224 2.85 7.191 3.094a2.4 2.4 0 0 1 .179-1.405c.232-.5.644-.923 1.193-1.225a3.9 3.9 0 0 1 2.08-.458c.776.043 1.481.304 2.041.755.274-.064.475-.132.748-.224.164-.055.35-.118.582-.19l.857-.264-.559 1.43.115-.007.915-.037-.541.662-.05.064c-.043.059-.098.132-.84 1.02a1.16 1.16 0 0 0-.261.816c.065 1.154-.093 2.198-.47 3.104a5.5 5.5 0 0 1-1.646 2.184c-.909.733-2.068 1.235-3.445 1.492-.675.126-1.4.189-2.151.189"/></svg>