<svg xmlns="http://www.w3.org/2000/svg" width="112" height="82" fill="none"><path stroke="#05C2DF" stroke-linejoin="round" stroke-width="1.007" d="M49.093 18.176a22 22 0 0 1 4.205 12.982c0 12.209-9.933 22.14-22.141 22.14-12.209 0-22.141-9.931-22.141-22.14s9.932-22.141 22.14-22.141c4.691 0 9.174 1.45 12.965 4.192"/><path stroke="#05C2DF" stroke-width="1.007" d="M31.158 40.013c-4.882 0-8.855-3.972-8.855-8.855 0-4.882 3.973-8.855 8.855-8.855s8.855 3.973 8.855 8.855-3.973 8.855-8.855 8.855ZM109.795 1c-9.251 0-16.778 7.527-16.778 16.779v8.743a14.4 14.4 0 0 0-5.946 3.495"/><path stroke="#05C2DF" stroke-width="1.007" d="M48.193 56.03a30.36 30.36 0 0 0 10.175-11.873m33.452 8.436a23 23 0 0 0-5.522-3.736l-.336-.162M83.274 36.35a14.4 14.4 0 0 0-.569 4v6.773l-1.72-.83a54.8 54.8 0 0 0-21.3-5.35 30 30 0 0 0 1.63-9.784C61.316 14.529 47.788 1 31.159 1S1 14.53 1 31.16s13.529 30.157 30.158 30.157c5.09 0 9.89-1.27 14.1-3.506 1.568 1.359 27.469 23.626 41.015 23.626q.25 0 .493-.01C100.322 80.86 110.57 69.745 111 69.272"/></svg>