<svg xmlns="http://www.w3.org/2000/svg" width="110" height="82" fill="none"><path stroke="#05C2DF" stroke-linejoin="round" stroke-width="1.007" d="M48.204 18.176c2.695 3.795 4.12 8.284 4.12 12.982 0 12.209-9.73 22.141-21.69 22.141-11.959 0-21.689-9.932-21.689-22.14 0-12.21 9.73-22.142 21.69-22.142 4.594 0 8.985 1.45 12.699 4.192"/><path stroke="#05C2DF" stroke-width="1.007" d="M30.635 40.013c-4.767 0-8.664-3.963-8.664-8.855s3.897-8.855 8.664-8.855 8.664 3.963 8.664 8.855-3.897 8.855-8.664 8.855ZM107.667 1c-9.063 0-16.436 7.527-16.436 16.779v8.743a14 14 0 0 0-5.825 3.495"/><path stroke="#05C2DF" stroke-width="1.007" d="M47.322 56.03a30.2 30.2 0 0 0 9.968-11.874m32.769 8.437a22.5 22.5 0 0 0-5.41-3.736l-.329-.162M81.688 36.35a14.7 14.7 0 0 0-.558 4v6.773l-1.685-.83a52.8 52.8 0 0 0-20.864-5.35 30.6 30.6 0 0 0 1.596-9.784C60.178 14.529 46.926 1 30.636 1S1.093 14.53 1.093 31.16s13.253 30.157 29.542 30.157c4.987 0 9.689-1.27 13.813-3.506 1.536 1.359 26.908 23.626 40.178 23.626q.244 0 .483-.01c13.279-.566 23.318-11.681 23.739-12.154"/></svg>