<svg xmlns="http://www.w3.org/2000/svg" width="15" height="14" fill="none"><path fill="#fff" d="M1.223 8.546c-.036.21-.06.423-.06.642C1.162 11.84 3.976 14 7.368 14s6.153-2.159 6.153-4.812c0-.219-.026-.432-.062-.642.532-.296.882-.88.882-1.546 0-.965-.736-1.75-1.64-1.75-.414 0-.803.165-1.1.454-1.032-.767-2.4-1.255-3.912-1.316l.785-3.248 1.77.66c.026.942.747 1.7 1.636 1.7.905 0 1.64-.785 1.64-1.75S12.787 0 11.881 0c-.631 0-1.173.386-1.448.944L7.903 0 6.842 4.396c-1.43.096-2.775.576-3.759 1.308a1.58 1.58 0 0 0-1.1-.454c-.904 0-1.64.785-1.64 1.75 0 .666.35 1.25.881 1.546M9.83 7c.678 0 1.23.589 1.23 1.313 0 .723-.552 1.312-1.23 1.312S8.6 9.036 8.6 8.313 9.152 7 9.83 7m-.175 3.865.35.79c-.77.39-1.681.595-2.636.595s-1.921-.206-2.69-.595l.35-.79c1.322.667 3.304.667 4.626 0M4.854 7c.678 0 1.23.589 1.23 1.313 0 .723-.552 1.312-1.23 1.312-.679 0-1.231-.589-1.231-1.312S4.175 7 4.853 7"/></svg>