<svg xmlns="http://www.w3.org/2000/svg" width="84" height="83" fill="none"><g stroke="#05C2DF" clip-path="url('#clip0_3495_4788')"><path d="M73.281 22.133a5.04 5.04 0 0 1 5.033-5.033 5.04 5.04 0 0 1 5.034 5.033 5.04 5.04 0 0 1-5.034 5.034 5.04 5.04 0 0 1-5.033-5.034ZM1.348 67.783A5.04 5.04 0 0 1 6.38 62.75a5.04 5.04 0 0 1 5.033 5.033 5.04 5.04 0 0 1-5.033 5.034 5.04 5.04 0 0 1-5.033-5.034ZM74.826 18.043 64 12.63M58.065 77.466a5.04 5.04 0 0 1 5.033-5.033 5.04 5.04 0 0 1 5.033 5.034 5.04 5.04 0 0 1-5.033 5.033 5.04 5.04 0 0 1-5.033-5.034ZM59.334 73.605l-10.13-5.4M37.315 42.883a5.04 5.04 0 0 1 5.033-5.033 5.04 5.04 0 0 1 5.033 5.033 5.04 5.04 0 0 1-5.033 5.034 5.04 5.04 0 0 1-5.033-5.034ZM39.1 38.613l-7.939-6.135M52.531 51.184c0-8.114 6.603-14.717 14.717-14.717s14.717 6.603 14.717 14.717c0 8.113-6.603 14.716-14.717 14.716s-14.717-6.603-14.717-14.717Z"/><path d="M62.214 47.033A5.04 5.04 0 0 1 67.247 42a5.04 5.04 0 0 1 5.033 5.033 5.04 5.04 0 0 1-5.033 5.034 5.04 5.04 0 0 1-5.033-5.034ZM74.607 63.916a.88.88 0 0 0 .44-.764v-3.646c0-2.012-1.686-3.672-3.787-3.672h-8.026c-2.1 0-3.787 1.66-3.787 3.67v3.647c0 .315.168.607.441.765zm0 0a14.7 14.7 0 0 1-7.36 1.984c-2.571 0-5.116-.686-7.359-1.984zM19.331 67.784c0-8.114 6.603-14.717 14.717-14.717s14.716 6.603 14.716 14.716c0 8.114-6.602 14.717-14.716 14.717S19.33 75.897 19.33 67.784Z"/><path d="M29.015 63.633a5.04 5.04 0 0 1 5.033-5.033 5.04 5.04 0 0 1 5.033 5.033 5.04 5.04 0 0 1-5.033 5.034 5.04 5.04 0 0 1-5.033-5.034ZM41.408 80.515a14.7 14.7 0 0 1-7.36 1.985c-2.571 0-5.116-.686-7.359-1.984a.88.88 0 0 1-.441-.766v-3.646c0-2.01 1.686-3.67 3.787-3.67h8.026c2.101 0 3.787 1.66 3.787 3.671v3.647a.88.88 0 0 1-.44.763ZM1.348 33.2c0-8.114 6.603-14.717 14.716-14.717 8.114 0 14.717 6.603 14.717 14.717s-6.603 14.717-14.717 14.717c-8.113 0-14.716-6.603-14.716-14.717Z"/><path d="M11.031 29.05a5.04 5.04 0 0 1 5.033-5.033 5.04 5.04 0 0 1 5.034 5.033 5.04 5.04 0 0 1-5.033 5.033 5.04 5.04 0 0 1-5.034-5.033ZM23.425 45.932h-.001a14.7 14.7 0 0 1-7.36 1.985c-2.57 0-5.116-.686-7.358-1.984a.88.88 0 0 1-.441-.766v-3.646c0-2.01 1.686-3.67 3.787-3.67h8.026c2.1 0 3.787 1.66 3.787 3.671v3.647a.88.88 0 0 1-.44.763ZM34.548 15.217C34.548 7.103 41.15.5 49.265.5 57.378.5 63.98 7.103 63.98 15.217s-6.603 14.716-14.716 14.716c-8.114 0-14.717-6.602-14.717-14.716Z"/><path d="M44.23 11.067a5.04 5.04 0 0 1 5.034-5.034 5.04 5.04 0 0 1 5.033 5.034 5.04 5.04 0 0 1-5.033 5.033 5.04 5.04 0 0 1-5.034-5.034ZM56.624 27.949a14.7 14.7 0 0 1-7.36 1.984c-2.572 0-5.116-.686-7.36-1.984a.88.88 0 0 1-.44-.765v-3.647c0-2.01 1.686-3.67 3.787-3.67h8.026c2.1 0 3.787 1.66 3.787 3.672v3.646a.88.88 0 0 1-.44.764ZM34.252 14.435l-8.865 7.217M66.526 36.087l-7.217-9.744M52.962 56.295l-5.563 4.33M19.192 67.482h-7.518M21.098 5.533a5.04 5.04 0 0 1-5.033 5.034 5.04 5.04 0 0 1-5.034-5.034A5.04 5.04 0 0 1 16.065.5a5.04 5.04 0 0 1 5.033 5.033ZM14.92 10.826v7.218"/></g><defs><clipPath id="clip0_3495_4788"><path fill="#fff" d="M.848 0h83v83h-83z"/></clipPath></defs></svg>