<svg xmlns="http://www.w3.org/2000/svg" width="90" height="81" fill="none"><rect width="85.367" height="60.28" x="2.113" y="1.936" stroke="#05C2DF" rx="3.5"/><path stroke="#05C2DF" d="M1.613 52.163H87.98"/><path stroke="#05C2DF" stroke-linecap="round" d="M40.553 57.429h7.953"/><path stroke="#05C2DF" d="M27.387 62.738h34.284v5.224H27.387zM16.855 74.228h55.349v5.224H16.855zM18.185 73.707l8.84-5.224h35.01l8.84 5.224z"/><path fill="#05C2DF" d="m25.113 13.796 8 22.363h.09l8-22.363h.773l-8.318 23.272h-1L24.34 13.796zm21.536 23.272V13.796h6.819q1.954 0 3.454.83a6 6 0 0 1 2.364 2.317q.863 1.49.863 3.489 0 1.977-.863 3.466a6 6 0 0 1-2.364 2.307q-1.5.818-3.454.818h-6.455v-.727h6.455q1.75 0 3.09-.728a5.3 5.3 0 0 0 2.103-2.045q.76-1.319.761-3.091 0-1.784-.761-3.114a5.3 5.3 0 0 0-2.102-2.057q-1.341-.738-3.091-.738h-6.091v22.545zm8.864-10.59 5.727 10.59h-.818l-5.727-10.59z"/></svg>