<svg xmlns="http://www.w3.org/2000/svg" width="107" height="80" fill="none"><rect width="84.397" height="59.592" x="11.511" y="1.5" stroke="#05C2DF" rx="3.5"/><path stroke="#05C2DF" d="M11.011 51.151h85.396"/><path stroke="#05C2DF" stroke-linecap="round" d="M49.522 56.358h7.852"/><path stroke="#05C2DF" d="M36.505 61.618h33.888v5.154H36.505zM26.091 72.98h54.716v5.154H26.091zM27.42 72.453l8.722-5.154h34.614l8.722 5.154z"/><path fill="#05C2DF" d="m34.267 13.307 8 22.364h.091l8-22.364h.773L42.813 36.58h-1l-8.318-23.273zM55.804 36.58V13.307h6.819q1.954 0 3.454.83a6 6 0 0 1 2.364 2.318q.863 1.489.863 3.489 0 1.977-.863 3.466a6 6 0 0 1-2.364 2.306q-1.5.819-3.454.819h-6.455v-.728h6.455q1.75 0 3.09-.727a5.3 5.3 0 0 0 2.103-2.045q.76-1.32.761-3.091 0-1.785-.761-3.114a5.3 5.3 0 0 0-2.103-2.057q-1.34-.738-3.09-.738h-6.091V36.58zm8.864-10.59 5.727 10.59h-.818L63.85 25.99z"/></svg>