<svg xmlns="http://www.w3.org/2000/svg" width="111" height="82" fill="none"><path stroke="#05C2DF" d="M68.79 41.156c0 7.516-5.966 13.59-13.303 13.59s-13.302-6.074-13.302-13.59c0-7.515 5.965-13.59 13.302-13.59s13.303 6.075 13.303 13.59ZM69.635 26.75c4.574 3.09 7.591 8.388 7.591 14.406s-3.017 11.316-7.591 14.406M69.808 55.422l6.21 8.101"/><path stroke="#05C2DF" d="M75.846 63.7a27.28 27.28 0 0 0 12.077-22.72c0-9.491-4.8-17.848-12.077-22.72l-6.211 8.63"/><path stroke="#05C2DF" d="M82.747 9.806c9.772 6.61 16.218 17.946 16.218 30.822S92.519 64.84 82.747 71.449"/><path stroke="#05C2DF" d="M82.747 9.982 88.957 1c12.684 8.535 21.049 23.176 21.049 39.804s-8.365 31.268-21.048 39.803l-6.384-9.158M41.34 26.75c-4.574 3.09-7.592 8.388-7.592 14.406s3.018 11.316 7.592 14.406M41.168 55.422l-6.211 8.101"/><path stroke="#05C2DF" d="M35.129 63.7a27.28 27.28 0 0 1-12.077-22.72c0-9.491 4.8-17.848 12.077-22.72l6.21 8.63"/><path stroke="#05C2DF" d="M28.228 9.806c-9.773 6.61-16.218 17.946-16.218 30.822s6.445 24.212 16.218 30.821"/><path stroke="#05C2DF" d="M28.228 9.982 22.017 1C9.334 9.535.968 24.176.968 40.804s8.366 31.268 21.049 39.803L28.4 71.45"/></svg>