<svg xmlns="http://www.w3.org/2000/svg" width="99" height="81" fill="none"><path stroke="#05C2DF" d="M45.861 28.08v-7.011m16.633 14.295h8.11M32.802 45.811H37.2M54.796 60.52v-7.01"/><rect width="24.567" height="24.567" x="37.565" y="28.441" stroke="#05C2DF" rx="3.5"/><rect width="15.495" height="15.495" x="42.237" y="33.115" stroke="#05C2DF" rx="3.5"/><rect width="18.519" height="18.519" x="70.829" y="1.5" stroke="#05C2DF" rx="3.5"/><rect width="9.997" height="9.997" x="75.228" y="5.898" stroke="#05C2DF" rx="2.5"/><rect width="18.519" height="18.519" x="10.348" y="1.5" stroke="#05C2DF" rx="3.5"/><rect width="9.997" height="9.997" x="14.746" y="5.898" stroke="#05C2DF" rx="2.5"/><rect width="18.519" height="18.519" x="11.173" y="61.431" stroke="#05C2DF" rx="3.5"/><rect width="9.997" height="9.997" x="15.571" y="65.83" stroke="#05C2DF" rx="2.5"/><rect width="18.519" height="18.519" x="70.829" y="61.431" stroke="#05C2DF" rx="3.5"/><rect width="9.997" height="9.997" x="75.228" y="65.83" stroke="#05C2DF" rx="2.5"/><path stroke="#05C2DF" d="M55.071 28.08V10.896h15.12M37.201 38.113H19.744V20.52M62.631 41.962h17.183v18.97M46.411 53.509V70.69H30.054"/><circle cx="45.861" cy="18.594" r="1.974" stroke="#05C2DF"/><circle cx="73.078" cy="35.364" r="1.974" stroke="#05C2DF"/><circle cx="30.466" cy="45.811" r="1.974" stroke="#05C2DF"/><circle cx="54.659" cy="62.856" r="1.974" stroke="#05C2DF"/></svg>