<svg xmlns="http://www.w3.org/2000/svg" width="237" height="69" fill="none"><path stroke="#05C2DF" stroke-miterlimit="1.517" stroke-width="2" d="M51 7c-4.88-3.411-10.086-4.648-16-5S23.56 3.003 18.321 5.812a32.7 32.7 0 0 0-12.676 12.18A33.4 33.4 0 0 0 1 35.08a33.4 33.4 0 0 0 4.727 17.066A32.7 32.7 0 0 0 18.46 64.263a32.04 32.04 0 0 0 17.066 3.67C41.44 67.554 47.136 65.436 52 62" opacity=".45"/><path stroke="#05C2DF" stroke-miterlimit="10" d="M34.03 61.156c14.588 0 26.413-11.791 26.413-26.336S48.618 8.485 34.03 8.485 7.618 20.276 7.618 34.82s11.825 26.336 26.413 26.336Z"/><path fill="#05C2DF" d="M86 12H56v2h30zM86 56H56v2h30z" opacity=".45"/><path fill="#05C2DF" d="M45 35 27.75 45.392V24.608z"/><path fill="#05C2DF" d="M82.224 12h-1.96v2h1.96zM79.285 12h-1.959v2h1.96zM85.163 12h-1.959v2h1.96zM88.102 12h-1.96v2h1.96zM91.04 12h-1.959v2h1.96zM94.96 12H93v2h1.96zM98.877 12h-1.959v2h1.96zM102.795 12h-1.959v2h1.959zM107.694 12h-1.96v2h1.96zM112.591 12h-1.959v2h1.959zM117.489 12h-1.959v2h1.959zM122.387 12h-1.959v2h1.959zM127.285 12h-1.959v2h1.959zM132.184 12h-1.959v2h1.959zM143.547 12.23h-1.568v1.6h1.568zM149.424 12.23h-1.568v1.6h1.568zM155.302 12.23h-1.568v1.6h1.568zM160.886 12.43h-1.274v1.3h1.274zM167.742 12.43h-1.273v1.3h1.273zM174.6 12.43h-1.274v1.3h1.274zM181.457 12.43h-1.273v1.3h1.273zM189.293 12.43h-1.273v1.3h1.273zM198.109 12.43h-1.273v1.3h1.273zM137.669 12.23h-1.567v1.6h1.567zM236.02 12.5h-.98v1h.98zM222.306 12.5h-.98v1h.98zM209.571 12.5h-.979v1h.979zM82.224 56h-1.96v2h1.96zM79.285 56h-1.959v2h1.96zM85.163 56h-1.959v2h1.96zM88.102 56h-1.96v2h1.96zM91.04 56h-1.959v2h1.96zM94.96 56H93v2h1.96zM98.877 56h-1.959v2h1.96zM102.795 56h-1.959v2h1.959zM107.694 56h-1.96v2h1.96zM112.591 56h-1.959v2h1.959zM117.489 56h-1.959v2h1.959zM122.387 56h-1.959v2h1.959zM127.285 56h-1.959v2h1.959zM132.184 56h-1.959v2h1.959zM143.547 56.23h-1.568v1.6h1.568zM149.424 56.23h-1.568v1.6h1.568zM155.302 56.23h-1.568v1.6h1.568zM160.886 56.43h-1.274v1.3h1.274zM167.742 56.43h-1.273v1.3h1.273zM174.6 56.43h-1.274v1.3h1.274zM181.457 56.43h-1.273v1.3h1.273zM189.293 56.43h-1.273v1.3h1.273zM198.109 56.43h-1.273v1.3h1.273zM137.669 56.23h-1.567v1.6h1.567zM236.02 56.5h-.98v1h.98zM222.306 56.5h-.98v1h.98zM209.571 56.5h-.979v1h.979z" opacity=".45"/></svg>